<?xml version="1.0" standalone="no"?><!DOCTYPE svg PUBLIC "-//W3C//DTD SVG 1.1//EN" "http://www.w3.org/Graphics/SVG/1.1/DTD/svg11.dtd"><svg class="icon" width="200px" height="194.31px" viewBox="0 0 1054 1024" version="1.1" xmlns="http://www.w3.org/2000/svg"><path fill="#333333" d="M439.205647 916.841412L268.8 1009.242353a48.188235 48.188235 0 0 1-71.137882-42.375529v-159.171765C77.251765 723.666824 0 603.105882 0 458.420706 0 205.251765 235.971765 0 527.058824 0 818.115765 0 1054.117647 205.251765 1054.117647 458.390588c0 253.229176-235.971765 458.450824-527.058823 458.450824h-87.853177zM65.837176 458.390588c0 133.150118 78.787765 256.361412 197.692236 327.408941v108.092236a24.094118 24.094118 0 0 0 34.093176 21.925647l141.552941-64.512H527.058824c254.674824 0 461.221647-175.917176 461.221647-392.914824 0-217.057882-206.516706-392.944941-461.19153-392.944941-254.704941 0-461.221647 175.917176-461.221647 392.944941z m724.781177 65.475765a65.686588 65.686588 0 0 1-65.927529-65.505882c0-36.201412 29.515294-65.505882 65.927529-65.505883a65.656471 65.656471 0 0 1 65.837176 65.505883 65.656471 65.656471 0 0 1-65.837176 65.505882z m-263.559529 0a65.686588 65.686588 0 0 1-65.92753-65.505882c0-36.201412 29.515294-65.505882 65.92753-65.505883s65.897412 29.304471 65.897411 65.505883-29.515294 65.505882-65.897411 65.505882z m-263.529412 0a65.656471 65.656471 0 0 1-65.867294-65.475765c0-36.201412 29.485176-65.536 65.837176-65.536 36.442353 0 65.927529 29.334588 65.92753 65.536 0 36.171294-29.515294 65.475765-65.92753 65.475765z" /></svg>