<?xml version="1.0" standalone="no"?><!DOCTYPE svg PUBLIC "-//W3C//DTD SVG 1.1//EN" "http://www.w3.org/Graphics/SVG/1.1/DTD/svg11.dtd"><svg class="icon" width="200px" height="200.00px" viewBox="0 0 1024 1024" version="1.1" xmlns="http://www.w3.org/2000/svg"><path fill="#333333" d="M766.82602813 894.24084042L257.16677715 894.24084042c-64.08335127 0-63.70740615-63.69481494-63.70740616-63.69481493L225.31307363 416.42989648c0 0-1.7331249-63.70740615 63.70740616-63.70740615l0 0C289.02677627 229.57618291 388.85009521 129.75915958 511.99640263 129.75915958c100.84862461 0 185.07022208 67.38321445 212.6167462 159.26222021l-33.19829121 0C665.09150381 214.96109258 595.09016474 161.61286221 511.99640263 161.61286221c-105.55063682 0-191.11592373 85.55899131-191.12221933 191.10962724 69.60650713 0 218.37644122 0 318.53703164 0l0 0.00629561 95.61867012 0c62.03184258 0.04496924 63.6498457 63.70111055 63.6498457 63.70111054l31.85370352 414.11702901C830.53343427 830.54602549 832.60383067 894.24084042 766.82602813 894.24084042zM766.82602813 416.42989648c0-17.57678291-14.26432852-31.85999912-31.85370352-31.85999911L289.02047979 384.56989737c-17.58937412 0-31.85370352 14.28321621-31.85370352 31.85999911l-31.85370351 414.11702901c0 17.58307852 14.26432852 31.82222461 31.85370351 31.82222461L766.82602813 862.3691501c17.59566972 0 31.85370352-14.23824609 31.85370351-31.82222461L766.82602813 416.42989648zM639.41121494 575.70380878c-35.18594385 0-63.70740615-28.5214623-63.70740615-63.70740615 0-35.17964825 28.5214623-63.70740615 63.70740615-63.70740615s63.70740615 28.52775791 63.70740615 63.70740615C703.11862197 547.18234648 674.59625967 575.70380878 639.41121494 575.70380878zM639.41121494 474.17344648c-20.8892373 0-37.82925176 16.93371885-37.82925176 37.82295615 0 20.89643203 16.94001445 37.82925176 37.82925176 37.82925177s37.82295615-16.93371885 37.82295615-37.82925177C677.23417109 491.10716533 660.30045224 474.17344648 639.41121494 474.17344648zM384.58158945 575.70380878c-35.18594385 0-63.70740615-28.5214623-63.70740615-63.70740615 0-35.17964825 28.5214623-63.70740615 63.70740615-63.70740615s63.70740615 28.52775791 63.70740615 63.70740615C448.28899648 547.18234648 419.7675333 575.70380878 384.58158945 575.70380878zM384.58158945 474.17344648c-20.8892373 0-37.82295615 16.93371885-37.82295615 37.82295615 0 20.89643203 16.93371885 37.82925176 37.82295615 37.82925177s37.82295615-16.93371885 37.82295615-37.82925177C422.4045456 491.10716533 405.47172588 474.17344648 384.58158945 474.17344648z"  /></svg>